<svg xmlns="http://www.w3.org/2000/svg" viewBox="0 0 32 32" fill="none">
<path fill="#25D366" d="M16.01 3C8.83 3 3 8.74 3 15.82c0 2.78.91 5.35 2.46 7.44L4 29l5.9-1.39a13.2 13.2 0 0 0 6.11 1.48c7.18 0 13.01-5.74 13.01-12.82C29.02 8.74 23.19 3 16.01 3Z"/>
<path fill="#fff" d="M23.5 19.7c-.1-.17-.36-.27-.76-.47-.4-.2-2.36-1.16-2.73-1.29-.36-.13-.63-.2-.9.2-.27.4-1.03 1.29-1.26 1.56-.23.27-.46.3-.86.1-.4-.2-1.69-.62-3.22-1.98-1.19-1.06-2-2.37-2.24-2.77-.23-.4-.02-.62.18-.82.18-.18.4-.46.6-.7.2-.23.27-.4.4-.66.13-.27.07-.5-.03-.7-.1-.2-.9-2.16-1.23-2.96-.32-.77-.65-.67-.9-.68-.23-.01-.5-.02-.76-.02-.27 0-.7.1-1.06.5-.36.4-1.4 1.37-1.4 3.34s1.43 3.88 1.63 4.15c.2.27 2.8 4.28 6.78 6 0 0 2.28.98 3.12 1.12.84.14 1.6.12 2.2.07.67-.06 2.36-.96 2.7-1.89.33-.93.33-1.73.23-1.9Z"/>
</svg>